<svg width="200" height="200" viewBox="0 0 200 200" fill="none" xmlns="http://www.w3.org/2000/svg">
<g filter="url(#filter0_d_1506_813)">
<circle cx="43" cy="47" r="5" fill="#BBB185"/>
<circle cx="43" cy="89" r="5" fill="#BBB185"/>
<circle cx="43" cy="131" r="5" fill="#BBB185"/>
<circle cx="56" cy="68" r="5" fill="#BBB185"/>
<circle cx="56" cy="110" r="5" fill="#BBB185"/>
<circle cx="56" cy="152" r="5" fill="#BBB185"/>
<circle cx="68" cy="47" r="5" fill="#BBB185"/>
<circle cx="68" cy="89" r="5" fill="#BBB185"/>
<circle cx="68" cy="131" r="5" fill="#BBB185"/>
<circle cx="81" cy="68" r="5" fill="#BBB185"/>
<circle cx="81" cy="110" r="5" fill="#BBB185"/>
<circle cx="81" cy="152" r="5" fill="#BBB185"/>
<circle cx="93" cy="47" r="5" fill="#BBB185"/>
<circle cx="93" cy="89" r="5" fill="#BBB185"/>
<circle cx="93" cy="131" r="5" fill="#BBB185"/>
<circle cx="106" cy="68" r="5" fill="#BBB185"/>
<circle cx="106" cy="110" r="5" fill="#BBB185"/>
<circle cx="106" cy="152" r="5" fill="#BBB185"/>
<circle cx="118" cy="47" r="5" fill="#BBB185"/>
<circle cx="118" cy="89" r="5" fill="#BBB185"/>
<circle cx="118" cy="131" r="5" fill="#BBB185"/>
<circle cx="131" cy="68" r="5" fill="#BBB185"/>
<circle cx="131" cy="110" r="5" fill="#BBB185"/>
<circle cx="131" cy="152" r="5" fill="#BBB185"/>
<circle cx="143" cy="47" r="5" fill="#BBB185"/>
<circle cx="143" cy="89" r="5" fill="#BBB185"/>
<circle cx="143" cy="131" r="5" fill="#BBB185"/>
<circle cx="156" cy="68" r="5" fill="#BBB185"/>
<circle cx="156" cy="110" r="5" fill="#BBB185"/>
<circle cx="156" cy="152" r="5" fill="#BBB185"/>
</g>
<defs>
<filter id="filter0_d_1506_813" x="27" y="29" width="153" height="145" filterUnits="userSpaceOnUse" color-interpolation-filters="sRGB">
<feFlood flood-opacity="0" result="BackgroundImageFix"/>
<feColorMatrix in="SourceAlpha" type="matrix" values="0 0 0 0 0 0 0 0 0 0 0 0 0 0 0 0 0 0 127 0" result="hardAlpha"/>
<feOffset dx="4" dy="2"/>
<feGaussianBlur stdDeviation="7.5"/>
<feComposite in2="hardAlpha" operator="out"/>
<feColorMatrix type="matrix" values="0 0 0 0 0.854167 0 0 0 0 0.854167 0 0 0 0 0.854167 0 0 0 1 0"/>
<feBlend mode="normal" in2="BackgroundImageFix" result="effect1_dropShadow_1506_813"/>
<feBlend mode="normal" in="SourceGraphic" in2="effect1_dropShadow_1506_813" result="shape"/>
</filter>
</defs>
</svg>
