<svg width="197" height="65" fill="none" xmlns="http://www.w3.org/2000/svg"><circle cx="31.317" cy="27.27" r="5.342" fill="url(#a)"/><g opacity=".67" filter="url(#b)"><path d="M42.635 27.988c3.577 3.23 11.973 6.653 8.745 10.231-3.23 3.578-21.685 13.798-29.37 9.848-3.577-3.23 3.206-13.626 6.435-17.204 3.229-3.578 10.612-6.103 14.19-2.875z" fill="url(#c)" fill-opacity=".3"/></g><g filter="url(#d)"><path fill-rule="evenodd" clip-rule="evenodd" d="M37.098 41.933h-7.025a6.331 6.331 0 0 1 0-12.663h.347c1.227 0 2.377.332 3.365.91a9.631 9.631 0 0 1 9.124-6.547h.477a9.15 9.15 0 1 1 0 18.3h-6.288z" fill="#fff"/></g><path d="M72.688 30.297 70.546 38H68.32l-2.984-11.273h2.445l1.774 8.164h.062l2.11-8.164h1.992l2.11 8.164h.062l1.78-8.164h2.446L77.125 38h-2.227l-2.14-7.703h-.07zm11.328.836c-.495 0-.91.17-1.243.508-.328.338-.513.77-.554 1.297h3.554c-.026-.537-.2-.972-.523-1.305-.318-.334-.73-.5-1.234-.5zm1.789 4.305h2.093c-.125.822-.536 1.486-1.234 1.992-.693.5-1.555.75-2.586.75-1.286 0-2.297-.386-3.031-1.157-.73-.77-1.094-1.828-1.094-3.171 0-1.339.365-2.407 1.094-3.204.729-.802 1.71-1.203 2.945-1.203 1.214 0 2.18.38 2.899 1.14.718.761 1.078 1.78 1.078 3.056v.695h-5.774v.14c0 .6.175 1.087.524 1.462.354.37.82.554 1.398.554.417 0 .776-.094 1.078-.281.302-.193.506-.45.61-.773zm6.578 1.046c.505 0 .932-.145 1.281-.437.354-.297.531-.67.531-1.117v-.61l-1.765.11c-.427.03-.758.138-.993.32a.874.874 0 0 0-.343.719c0 .312.117.56.351.742.235.182.547.273.938.273zm-.75 1.649c-.807 0-1.477-.237-2.008-.711-.531-.474-.797-1.083-.797-1.828 0-.76.281-1.357.844-1.79.562-.432 1.367-.679 2.414-.742l2.11-.124v-.555c0-.386-.128-.688-.383-.906-.25-.22-.592-.329-1.024-.329-.417 0-.758.094-1.023.282-.26.187-.42.44-.477.758h-2.086c.042-.823.393-1.485 1.055-1.985.661-.505 1.539-.758 2.633-.758 1.072 0 1.932.256 2.578.766.646.51.969 1.187.969 2.031V38h-2.204v-1.281h-.046c-.23.437-.579.784-1.047 1.039-.47.25-.972.375-1.508.375zm6.89-10.438h2.282v1.93h1.547v1.719h-1.547v4.008c0 .63.328.945.984.945.214 0 .399-.013.555-.04v1.68c-.266.063-.628.094-1.086.094-.985 0-1.688-.177-2.11-.531-.416-.354-.625-.94-.625-1.758v-4.398h-1.18v-1.719h1.18v-1.93zM103.656 38V26.727h2.242v4.39h.047c.224-.531.56-.937 1.008-1.219.453-.286.995-.43 1.625-.43.922 0 1.638.282 2.149.845.515.557.773 1.322.773 2.296V38h-2.281v-4.906c0-.547-.136-.972-.407-1.274-.265-.307-.653-.46-1.164-.46-.531 0-.95.171-1.257.515-.302.339-.453.786-.453 1.344V38h-2.282zm13.063-6.867c-.495 0-.909.17-1.242.508-.329.338-.513.77-.555 1.297h3.555c-.026-.537-.201-.972-.524-1.305-.318-.334-.729-.5-1.234-.5zm1.789 4.305h2.094c-.125.822-.537 1.486-1.235 1.992-.693.5-1.555.75-2.586.75-1.286 0-2.297-.386-3.031-1.157-.729-.77-1.094-1.828-1.094-3.171 0-1.339.365-2.407 1.094-3.204.729-.802 1.711-1.203 2.945-1.203 1.214 0 2.18.38 2.899 1.14.718.761 1.078 1.78 1.078 3.056v.695h-5.774v.14c0 .6.175 1.087.524 1.462.354.37.82.554 1.398.554.417 0 .776-.094 1.078-.281a1.41 1.41 0 0 0 .61-.773zM121.852 38v-8.375h2.203v1.508h.047c.145-.531.39-.938.734-1.219.344-.281.763-.422 1.258-.422.239 0 .455.029.648.086v2.008c-.213-.089-.489-.133-.828-.133-.562 0-1 .164-1.312.492-.313.328-.469.787-.469 1.375V38h-2.281zm11.007.195c-1.645 0-2.948-.518-3.906-1.554-.953-1.042-1.43-2.47-1.43-4.282 0-1.807.48-3.229 1.438-4.265.958-1.042 2.258-1.563 3.898-1.563.896 0 1.709.177 2.438.532a4.425 4.425 0 0 1 1.765 1.5c.443.645.693 1.382.75 2.21h-2.296c-.11-.692-.409-1.247-.899-1.664-.484-.416-1.07-.625-1.758-.625-.89 0-1.601.35-2.132 1.047-.532.698-.797 1.638-.797 2.82 0 1.204.263 2.154.789 2.852.526.693 1.242 1.04 2.148 1.04.698 0 1.284-.194 1.758-.579.474-.385.773-.911.898-1.578h2.297c-.13 1.255-.643 2.255-1.539 3-.896.74-2.036 1.11-3.422 1.11zm6.282-.195V26.727h2.242v4.39h.047c.224-.531.56-.937 1.008-1.219.453-.286.994-.43 1.624-.43.922 0 1.639.282 2.149.845.516.557.773 1.322.773 2.296V38h-2.281v-4.906c0-.547-.135-.972-.406-1.274-.266-.307-.654-.46-1.164-.46-.531 0-.951.171-1.258.515-.302.339-.453.786-.453 1.344V38h-2.281zm13.062-6.867c-.495 0-.909.17-1.242.508-.328.338-.513.77-.555 1.297h3.555c-.026-.537-.201-.972-.523-1.305-.318-.334-.73-.5-1.235-.5zm1.789 4.305h2.094c-.125.822-.537 1.486-1.234 1.992-.693.5-1.555.75-2.586.75-1.287 0-2.297-.386-3.032-1.157-.729-.77-1.093-1.828-1.093-3.171 0-1.339.364-2.407 1.093-3.204.73-.802 1.711-1.203 2.946-1.203 1.213 0 2.179.38 2.898 1.14.719.761 1.078 1.78 1.078 3.056v.695h-5.773v.14c0 .6.174 1.087.523 1.462.354.37.821.554 1.399.554.416 0 .776-.094 1.078-.281.302-.193.505-.45.609-.773zm10.953-2.696h-2.117c-.068-.453-.247-.817-.539-1.094-.286-.276-.659-.414-1.117-.414-.568 0-1.016.23-1.344.688-.323.453-.484 1.08-.484 1.883 0 .817.161 1.453.484 1.906.328.453.779.68 1.352.68.453 0 .823-.128 1.109-.383.287-.26.466-.62.539-1.078h2.125c-.057.99-.43 1.778-1.117 2.367-.688.588-1.581.883-2.68.883-1.271 0-2.276-.388-3.015-1.164-.74-.782-1.11-1.852-1.11-3.211 0-1.339.37-2.399 1.11-3.18.744-.787 1.744-1.18 3-1.18 1.114 0 2.013.308 2.695.922.687.615 1.057 1.406 1.109 2.375zm3.477.242 2.844-3.359h2.586l-3.196 3.594L174.008 38h-2.625l-2.399-3.406-.593.64V38h-2.282V26.727h2.282v6.257h.031z" fill="#fff"/><defs><filter id="b" x="-16.881" y="-11.374" width="106.862" height="98.211" filterUnits="userSpaceOnUse" color-interpolation-filters="sRGB"><feFlood flood-opacity="0" result="BackgroundImageFix"/><feBlend in="SourceGraphic" in2="BackgroundImageFix" result="shape"/><feGaussianBlur stdDeviation="18.938" result="effect1_foregroundBlur_5372_304"/></filter><filter id="d" x="8.591" y="11.007" width="50.678" height="40.185" filterUnits="userSpaceOnUse" color-interpolation-filters="sRGB"><feFlood flood-opacity="0" result="BackgroundImageFix"/><feBlend in="SourceGraphic" in2="BackgroundImageFix" result="shape"/><feColorMatrix in="SourceAlpha" values="0 0 0 0 0 0 0 0 0 0 0 0 0 0 0 0 0 0 127 0" result="hardAlpha"/><feOffset dx="6.734" dy="-12.626"/><feGaussianBlur stdDeviation="12.626"/><feComposite in2="hardAlpha" operator="arithmetic" k2="-1" k3="1"/><feColorMatrix values="0 0 0 0 0 0 0 0 0 0 0 0 0 0 0 0 0 0 0.2 0"/><feBlend in2="shape" result="effect1_innerShadow_5372_304"/><feColorMatrix in="SourceAlpha" values="0 0 0 0 0 0 0 0 0 0 0 0 0 0 0 0 0 0 127 0" result="hardAlpha"/><feOffset dx="-15.151" dy="9.259"/><feGaussianBlur stdDeviation="12.626"/><feComposite in2="hardAlpha" operator="arithmetic" k2="-1" k3="1"/><feColorMatrix values="0 0 0 0 1 0 0 0 0 1 0 0 0 0 1 0 0 0 1 0"/><feBlend in2="effect1_innerShadow_5372_304" result="effect2_innerShadow_5372_304"/></filter><radialGradient id="a" cx="0" cy="0" r="1" gradientUnits="userSpaceOnUse" gradientTransform="rotate(132.136 11.316 19.6) scale(11.1308)"><stop stop-color="#FFF72C"/><stop offset="1" stop-color="#DF7800"/></radialGradient><linearGradient id="c" x1="25.81" y1="49.649" x2="46.592" y2="26.326" gradientUnits="userSpaceOnUse"><stop stop-color="#254659"/><stop offset="1" stop-color="#023553"/></linearGradient></defs></svg>